<svg xmlns="http://www.w3.org/2000/svg" x="0px" y="0px" width="48" height="48" viewBox="0 0 48 48">
<linearGradient id="kM1uKwC9sUKGexMTNJd_qa_SEHsYigx9DvU_gr1" x1="21.854" x2="25.223" y1="4.726" y2="41.333" gradientUnits="userSpaceOnUse"><stop offset="0" stop-color="#ffc153"></stop><stop offset="1" stop-color="#f0a737"></stop></linearGradient><path fill="url(#kM1uKwC9sUKGexMTNJd_qa_SEHsYigx9DvU_gr1)" d="M38,15v26c0,1.105-0.895,2-2,2H12c-1.105,0-2-0.895-2-2V7c0-1.105,0.895-2,2-2h16L38,15z"></path><linearGradient id="kM1uKwC9sUKGexMTNJd_qb_SEHsYigx9DvU_gr2" x1="33.102" x2="32.952" y1=".68" y2="14.433" gradientUnits="userSpaceOnUse"><stop offset="0" stop-color="#ffa732"></stop><stop offset="1" stop-color="#ff9032"></stop></linearGradient><path fill="url(#kM1uKwC9sUKGexMTNJd_qb_SEHsYigx9DvU_gr2)" d="M28,5v10h10L28,5z"></path><path fill="#fff" d="M20.686,29h6.628C28.932,27.925,30,26.088,30,24c0-3.314-2.686-6-6-6s-6,2.686-6,6 C18,26.088,19.068,27.925,20.686,29z"></path><rect width="6" height="2" x="21" y="32" fill="#fff"></rect>
</svg>